name C:\Users\u0101727\Documents\MyRepositories\paper-ad\predictivesimulations_2d/Results/PredSim_2D/IK_c22.mot
datacolumns 11
datarows 25
range 1.27593206 1.50617544
endheader
time	pelvis_tilt	pelvis_tx	pelvis_ty	hip_flexion_l	hip_flexion_r	knee_angle_l	knee_angle_r	ankle_angle_l	ankle_angle_r	lumbar_extension	
          1.27593206	        -15.11541356	          1.69366797	          0.90062882	         33.20376647	         10.38343600	        -37.56274315	         -7.29537236	         15.70540353	         11.30397308	          9.43621134	
          1.28552553	        -15.11473370	          1.70565547	          0.89977069	         34.17228340	          9.60764674	        -36.09005356	         -7.34290983	         15.99103338	         11.31423611	          9.39636043	
          1.29511901	        -15.11513503	          1.71769848	          0.89885454	         35.07965274	          8.84948516	        -34.50071472	         -7.42613352	         16.19577741	         11.31229209	          9.35976273	
          1.30471248	        -15.11700680	          1.72980345	          0.89787922	         35.92238783	          8.10792808	        -32.80242190	         -7.54403141	         16.32874936	         11.30172685	          9.32672624	
          1.31430596	        -15.12066839	          1.74197853	          0.89684358	         36.69593462	          7.38263824	        -31.00672139	         -7.69691823	         16.39873082	         11.28335888	          9.29763425	
          1.32389943	        -15.12618777	          1.75423572	          0.89575028	         37.39359292	          6.67449811	        -29.13980852	         -7.88843913	         16.41386356	         11.25557532	          9.27307827	
          1.33349290	        -15.13359277	          1.76659328	          0.89461176	         38.00239610	          5.98554054	        -27.23586551	         -8.12484226	         16.38142603	         11.21233137	          9.25436409	
          1.34308638	        -15.14290601	          1.77907271	          0.89344973	         38.50657570	          5.31891159	        -25.32707978	         -8.41322688	         16.30781868	         11.14120577	          9.24321327	
          1.35267985	        -15.15380764	          1.79169279	          0.89228671	         38.89671311	          4.67904581	        -23.44131055	         -8.76210354	         16.19844003	         11.02590314	          9.24080945	
          1.36227333	        -15.16550309	          1.80446811	          0.89114066	         39.17266740	          4.07119100	        -21.60041146	         -9.18129971	         16.05741035	         10.84989668	          9.24755931	
          1.37186680	        -15.17678286	          1.81741151	          0.89002587	         39.34133854	          3.50060740	        -19.82597001	         -9.68107897	         15.88732124	         10.59891418	          9.26339109	
          1.38146027	        -15.18642556	          1.83053685	          0.88895449	         39.40995698	          2.97219353	        -18.13283936	        -10.27114789	         15.68936963	         10.26011248	          9.28839274	
          1.39105375	        -15.19328731	          1.84385857	          0.88793570	         39.38534379	          2.49039068	        -16.53280832	        -10.96009063	         15.46345978	          9.82134788	          9.32280333	
          1.40064722	        -15.19611356	          1.85739088	          0.88697477	         39.27509537	          2.05981690	        -15.04292876	        -11.75690998	         15.20831529	          9.27177427	          9.36676340	
          1.41024070	        -15.19363892	          1.87114819	          0.88607277	         39.08425424	          1.68598411	        -13.67776435	        -12.67188869	         14.92191469	          8.60042280	          9.42056470	
          1.41983417	        -15.18445706	          1.88514410	          0.88522542	         38.81759203	          1.37479852	        -12.45718727	        -13.71595370	         14.60137058	          7.79685827	          9.48445794	
          1.42942764	        -15.16701226	          1.89939037	          0.88442158	         38.48046104	          1.13191030	        -11.40997294	        -14.89929616	         14.24288875	          6.85357816	          9.55859563	
          1.43902112	        -15.13986495	          1.91389809	          0.88364215	         38.07317781	          0.96210225	        -10.56696825	        -16.23119738	         13.84210494	          5.77061119	          9.64357128	
          1.44861459	        -15.10182414	          1.92867553	          0.88285561	         37.58868960	          0.86830349	         -9.96183163	        -17.72465139	         13.39403804	          4.57032310	          9.74044610	
          1.45820807	        -15.05273358	          1.94371641	          0.88201811	         37.00901341	          0.85324848	         -9.64273136	        -19.38561812	         12.89389732	          3.26624565	          9.85036050	
          1.46780154	        -14.99515063	          1.95900369	          0.88115304	         36.26608137	          0.92417727	         -9.73022542	        -21.21098745	         12.33961194	          1.83839630	          9.97728744	
          1.47739502	        -14.93728907	          1.97435150	          0.88038732	         35.40305234	          1.08572117	        -10.04462688	        -23.18218458	         11.77048710	          0.37215499	         10.11180389	
          1.48698849	        -14.89011990	          1.98941918	          0.87995040	         34.54511202	          1.36472230	        -10.32499535	        -25.20675843	         11.22048189	         -0.91097173	         10.23066523	
          1.49658196	        -14.86220465	          2.00395966	          0.88010403	         33.72950381	          1.78944125	        -10.58346651	        -27.14450031	         10.68948696	         -1.91299666	         10.31995797	
          1.50617544	        -14.85588754	          2.01790995	          0.88100400	         32.95869117	          2.35578440	        -10.81491609	        -28.93277281	         10.19210939	         -2.66330332	         10.37854254	
